<svg xmlns="http://www.w3.org/2000/svg" viewBox="0 0 339.8 77.1"><defs><style>.cls-1{fill:#fff;}</style></defs><g id="Layer_2" data-name="Layer 2"><g id="flag"><g id="flag-2" data-name="flag"><path class="cls-1" d="M249.7,39.9c-16.1,0-19.3,12.1-32.3,12.1H137.6c-19.3,0-21.5,12.1-32.5,12.1H5.8L0,77.1H83.3c21.9,0,29.8-12.1,29.8-12.1h82.4c23,0,31.1-12.1,31.1-12.1H334l5.8-13Z"/><path class="cls-1" d="M169.9,0h-3.63c-20,0-22.31,12.55-33.72,12.55h-103L23.5,26h86.43c22.72,0,30.92-12.55,30.92-12.55h23Z"/><path class="cls-1" d="M265.7,13.9h-4.2c-16.1,0-19.3,12.1-32.3,12.1H149.4c-19.3,0-21.5,12.1-32.5,12.1H17.6l-5.8,13H95.1C117,51.1,124.9,39,124.9,39h82.4c23,0,31.1-12.1,31.1-12.1h21.3Z"/></g></g></g></svg>