<?xml version="1.0" encoding="utf-8"?>
<!-- Generator: Adobe Illustrator 25.4.1, SVG Export Plug-In . SVG Version: 6.00 Build 0)  -->
<svg version="1.1" id="Layer_1" xmlns="http://www.w3.org/2000/svg" xmlns:xlink="http://www.w3.org/1999/xlink" x="0px" y="0px"
	 viewBox="0 0 635.4 212.4" style="enable-background:new 0 0 635.4 212.4;" xml:space="preserve">
<style type="text/css">
	.st0{fill:#FFFFFF;}
</style>
<path class="st0" d="M324.7,123.1v-1.4c-1.6,0-10.9,0-12.5,0v1.4c5.3,0.4,5.3,4.7,5.3,8.9v15.9c0,0-22.6-26.1-22.8-26.2h-11.2v1.4
	c2.9,0.3,3.8,1.5,5.6,3.9l0.1,0.1v22.7c0,3.9-0.4,6.5-5,7.1v1.4h12.5v-1.4c-5.4-0.4-5.4-5.1-5.4-9.2v-18.3c0,0,25.9,29.4,26.1,29.7
	h2.2v-26.7c0-1.9,0-5.4,0.9-7.1C321.4,123.7,323.2,123.4,324.7,123.1"/>
<path class="st0" d="M373.8,143.2v-1.5h-17.6v1.6c4.1,0.5,5,1.5,5,5.6c0,5.4-2.6,7.9-8.4,7.9c-8.9,0-12.1-9.2-12.1-17.7
	c0-4.4,0.9-18.7,12.6-18.7c5.7,0,10,3.7,11.8,10.1h2.1v-12.1h-2.5c-0.1,0.2-0.1,0.4-0.1,0.5c-0.3,0.6-0.8,1-1.5,1.2
	c-1,0.3-2.2,0.1-2.7-0.2c-2.5-1.3-5.6-1.9-9.1-1.9c-11.9,0-20.5,9-20.5,21.3c0,12.1,8,19.9,20.4,19.9c3.8,0,6.3-0.8,9.7-2.1
	c3.8-1.3,5-1.5,9-2.1v-6.1c0,0,0-0.9,0-1C369.9,145.1,370.1,143.4,373.8,143.2"/>
<path class="st0" d="M87.5,94.5v1h0.3c0.6,0,1.1,0,1.2,0.4c0.2,0.4,0.2,1.7,0.2,2.2v4.9c0,0.5,0,1.8-0.2,2.2
	c-0.1,0.4-0.6,0.4-1.2,0.4h-0.3v1h5.7v-1h-0.3c-0.6,0-1.1,0-1.2-0.4c-0.2-0.4-0.2-1.7-0.2-2.2v-4.9c0-0.5,0-1.8,0.2-2.2
	c0.1-0.4,0.6-0.4,1.2-0.4h0.3v-1H87.5z"/>
<path class="st0" d="M116.9,94.5v0.9l0.4,0c0.6,0.1,0.9,0.1,0.9,0.4c0,0.2-0.2,0.9-1.6,3.2c0,0.1-0.6,0.9-0.9,1.4
	c-0.3-0.6-2-3.7-2-3.7c-0.1-0.1-0.2-0.5-0.4-0.9c0-0.1,0-0.1,0-0.2c0-0.1,0.1-0.1,0.2-0.2c0.2-0.1,1.1-0.1,1.1-0.1v-0.9h-5.3v0.9
	c0,0,0.3,0,0.6,0.1c0.2,0,0.4,0.1,0.5,0.1c0.1,0,0.1,0.1,0.1,0.1c0.5,0.6,3.6,6.2,3.6,6.2v2c0,1.5,0,1.5-1.5,1.6l-0.3,0v1h5.8v-0.9
	l-0.3,0c-1.4-0.1-1.4-0.1-1.4-1.6v-2.3c0,0,2.9-4.8,2.9-4.8c0.5-0.9,0.8-1.3,1.6-1.4l0.3,0v-1H116.9z"/>
<path class="st0" d="M179.5,104.6c0,0-2.6-2.9-3.3-3.8c1.8-0.3,2.9-1.5,2.9-3.1c0-3.1-3.2-3.1-4.2-3.1h-5.4v1h0.3c0.6,0,1,0,1.1,0.4
	c0.1,0.4,0.1,1.7,0.1,2.2v4.9c0,0.5,0,1.8-0.1,2.2c-0.1,0.4-0.6,0.4-1.2,0.4h-0.3v1h5.6v-1h-0.3c-0.6,0-1,0-1.2-0.4
	c-0.1-0.4-0.1-1.7-0.1-2.2v-1.7c0.3,0,0.4,0.1,0.7,0.4l0.2,0.3l2.9,3.5l0.9,1.1h3.3v-0.9l-0.2,0C180.2,105.4,180,105.2,179.5,104.6
	 M173.3,95.6h0.8c0,0,0.2,0,0.2,0c1.3,0,2.1,0.9,2.1,2.3c0,2-1,2.2-3.1,2.2V95.6"/>
<path class="st0" d="M246.2,105.5c-0.7-0.1-1-0.3-1.5-0.9c0,0-2.6-2.9-3.3-3.8c1.8-0.3,2.9-1.5,2.9-3.1c0-3.1-3.2-3.1-4.2-3.1h-5.4
	v1h0.3c0.6,0,1,0,1.1,0.4c0.1,0.4,0.1,1.7,0.1,2.2v4.9c0,0.5,0,1.8-0.1,2.2c-0.1,0.4-0.6,0.4-1.2,0.4h-0.3v1h5.6v-1h-0.3
	c-0.6,0-1,0-1.2-0.4c-0.1-0.4-0.1-1.7-0.1-2.2v-1.7c0.3,0,0.4,0.1,0.7,0.4l0.2,0.2l2.9,3.5l0.9,1.1h3.3v-0.9L246.2,105.5z
	 M238.5,95.6c0,0,0.8,0,0.8,0l0.2,0c1.3,0,2.1,0.9,2.1,2.3c0,2-0.9,2.2-3.2,2.2V95.6"/>
<path class="st0" d="M192.2,103.2l0,0.3c-0.2,1.8-1.1,2-2.9,2.1c-0.7,0-1.6,0-2-0.5c-0.3-0.3-0.3-1.1-0.3-1.6v-2.5
	c1.5,0,2,0.2,2.2,1.6l0,0.2h0.9v-5.1h-1l0,0.3c-0.1,1.1-0.3,1.9-2.2,1.9v-4.2h1.4c1.8,0,2.5,0.1,2.8,1.9l0,0.2h0.9v-3.2h-9.1v1h0.3
	c0.6,0,1.1,0,1.2,0.4c0.2,0.4,0.2,1.7,0.2,2.2v4.8c0,0.5,0,1.8-0.2,2.2c-0.1,0.4-0.6,0.4-1.2,0.4h-0.3v1h10.1l0-3.4H192.2z"/>
<path class="st0" d="M231.3,103.1l0,0.3c-0.2,1.8-1.1,2-2.9,2.1c-0.7,0-1.6,0-2-0.5c-0.3-0.3-0.3-1.1-0.3-1.6v-2.5
	c1.5,0,2.1,0.2,2.2,1.6l0,0.2l0.2,0h0.7v-5.1h-1l0,0.3c-0.1,1.1-0.3,1.9-2.2,1.9v-4.2h1.4c1.7,0,2.5,0.1,2.8,1.9l0,0.2h0.9v-3.2
	h-9.1v1h0.3c0.6,0,1.1,0,1.2,0.4c0.2,0.4,0.2,1.7,0.2,2.2v4.8c0,0.5,0,1.8-0.2,2.2c-0.1,0.4-0.6,0.4-1.2,0.4h-0.3v1h10.1l0-3.4
	H231.3z"/>
<path class="st0" d="M206.1,105.1c-0.2-0.2-0.3-0.5-0.3-0.5l-4.1-10.3h-1l-2.7,6.9c0,0-0.7,1.6-0.7,1.6l-0.7,1.7
	c-0.3,0.7-0.6,1-1.4,1.1l-0.2,0h-0.1v0.9h4.3v-1l-0.5,0c-0.7,0-0.9-0.1-0.9-0.4c0-0.5,0.4-1.5,0.7-2.2l0.1-0.3c0,0,0-0.1,0.1-0.2
	h3.9c0.1,0.2,1,2.8,1,2.8c0,0.2-0.2,0.4-1,0.4l-0.2,0h-0.2v1h5.5v-0.9l-0.3,0C206.9,105.5,206.4,105.5,206.1,105.1 M202.1,101.2h-3
	c0.2-0.5,1.2-3,1.5-3.8C200.9,98.2,201.9,100.8,202.1,101.2"/>
<path class="st0" d="M162.2,102.1l0.3,0c1,0.1,1.2,0.2,1.2,1.2c0,1.9-1.4,2.3-2.6,2.3c-3.3,0-3.6-3.4-3.6-4.8c0-2.5,0.7-5.5,3.8-5.5
	c1.8,0,3,1.2,3.1,3.1l0,0.3l1.1,0v-4h-0.7l-0.1,0.2c-0.1,0.1-0.4,0.2-0.9,0c-0.9-0.4-1.8-0.6-2.8-0.6c-3.7,0-6.3,2.7-6.3,6.5
	c0,3.5,2.4,5.9,6.1,5.9c1,0,1.9-0.2,2.8-0.7c0,0,0,0,0,0l0.3-0.2c0.8-0.4,0.9-0.5,2-0.5h0.3v-2.1c0-0.4,0-0.7,0.2-0.9
	c0.2-0.2,0.9-0.2,0.9-0.2v-0.9h-5.1V102.1z"/>
<path class="st0" d="M208.2,94.5v3.3h1l0-0.3c0.1-1.8,0.6-1.9,2.3-1.9h0.2c0.3,0,0.8,0,1,0.1c0,0,0,0.1,0,0.1v8.2
	c0,1.2-0.2,1.5-1.6,1.5l-0.3,0v1h6.2v-1l-0.3,0c-1.5-0.1-1.6-0.4-1.6-1.5v-8.2l0,0c0.1-0.1,0.6-0.1,1.1-0.1c1.7,0,2.3,0.1,2.3,1.9
	l0,0.3h1v-3.3H208.2z"/>
<path class="st0" d="M95.7,94.5v3.3h1l0-0.3c0.1-1.8,0.6-1.9,2.3-1.9h0.2c0.3,0,0.8,0,1,0.1v0l0,0.1v8.2c0,1.2-0.2,1.5-1.6,1.5
	l-0.2,0l-0.1,0.2v0.7h6.2v-1l-0.3,0c-1.5-0.1-1.6-0.4-1.6-1.5v-8.2l0,0c0.1-0.1,0.6-0.1,1.1-0.1c1.7,0,2.3,0.1,2.3,1.9l0,0.3h1v-3.3
	H95.7z"/>
<path class="st0" d="M84.1,102.2c-0.5,1.9-1.2,3.6-3.5,3.6c-3.5,0-3.8-3.9-3.8-5.1c0-1.3,0.3-5.3,3.7-5.3c1.8,0,3.1,1.1,3.4,3l0,0.2
	h0.9v-4H84l-0.2,0.5c0,0-0.2,0.1-0.5-0.1c-1-0.5-1.8-0.7-2.9-0.7c-3.7,0-6.3,2.7-6.3,6.3c0,3.6,2.5,6.1,6.2,6.1
	c1.3,0,2.3-0.3,3.3-0.9c0.3-0.1,0.4-0.1,0.5,0c0,0,0.2,0.5,0.2,0.5H85V102h-0.8L84.1,102.2z"/>
<path class="st0" d="M132.4,94.3c-3.7,0-6.6,2.8-6.6,6.2c0,3.4,2.9,6.1,6.5,6.1c3.7,0,6.5-2.7,6.5-6.3C138.8,97,136,94.3,132.4,94.3
	 M132.3,95.4c2.8,0,3.8,2.6,3.8,5.1c0,1.2-0.3,5.2-3.7,5.2c-3.6,0-3.9-3.9-3.9-5.1C128.5,98.2,129.5,95.4,132.3,95.4"/>
<path class="st0" d="M140.1,94.5v0.8h0.2c0.6,0,1.1,0,1.3,0.5c0.2,0.4,0.2,1.8,0.2,2.2v4.9c0,0.5,0,1.8-0.2,2.3
	c-0.2,0.4-0.7,0.5-1.3,0.5h-0.2v0.8h5.8v-0.8l-0.5,0c-0.6,0-1,0-1.2-0.4c-0.2-0.4-0.2-1.7-0.2-2.2v-2c1.5,0,2.2,0.1,2.4,1.7l0,0.2
	h0.8v-5h-0.8l0,0.2c-0.1,1.1-0.3,2-2.4,1.9v-3.7v-0.8h1.2c0.9,0,1.8,0,2.5,0.3c0.7,0.3,0.8,0.9,1,1.6l0.1,0.3h0.8v-3.2H140.1z"/>
<path class="st0" d="M258.4,121.2c-12.1,0-20.6,7.8-20.6,18.8c0,10.9,8.6,18.8,20.4,18.8c10.3,0,20.7-6.5,20.7-18.8
	C279,129,270.5,121.2,258.4,121.2 M258.3,157c-10.3,0-11.4-12.1-11.4-17.3c0-6.2,1.5-16.6,11.4-16.6c7.5,0,11.7,6.1,11.7,17.3
	C270,151.3,265.9,157,258.3,157"/>
<path class="st0" d="M200.1,121.7v1.3c1.9,0,3.2,0.3,4,1.1c1.3,1.2,1.3,3.2,1.3,6v19.6c0,2.8,0,4.8-1.3,6c-0.8,0.8-2.1,1.2-4,1.1
	v1.3h32.7c0-0.6,0-9.4,0-10h-1.4c-1.6,6.1-4.4,8.2-11,8.2c-2.7,0-4.4-0.5-5.5-1.6c-1.6-1.6-1.6-4.3-1.6-7.7v-16.8
	c0-2.9,0-4.9,1.3-6.2c0.8-0.8,2.1-1.2,4.1-1.1v-1.4h-18C200.6,121.7,200.3,121.7,200.1,121.7"/>
<path class="st0" d="M117.5,121.7v1.4c1.9,0,3.2,0.3,4,1.1c1.3,1.2,1.3,3.2,1.3,6v19.6c0,2.8,0,4.8-1.3,6c-0.8,0.8-2.1,1.2-4,1.1
	v1.3h32.1v-10.1H148c-1.5,6.2-4,8.3-10.5,8.3c-2.6,0-4.8,0-5.7-1.1c-1.5-1.5-1.2-4.5-1.2-7.6v-7.3h0.4c5,0,6.9,0.9,8,6.1h1.6v-14
	h-1.6c-0.3,5-3.3,6.1-8,6.1h-0.4v-10.8c0-3,0-3,0.1-3.6c0.1-0.7,0.6-0.6,5.1-0.6c5.9,0,8.9,2.2,9.8,7.3c0.4,0,1.3,0,1.7,0
	c0-0.6,0-8.6,0-9.3C144.1,121.7,118.1,121.7,117.5,121.7"/>
<path class="st0" d="M158.2,121.7v1.4c1.9,0,3.2,0.3,4,1.1c1.3,1.2,1.3,3.2,1.3,6v19.6c0,2.8,0,4.8-1.3,6c-0.8,0.8-2.1,1.2-4,1.1
	v1.3h32.1v-10.1h-1.6c-1.4,6.2-4,8.3-10.5,8.3c-2.6,0-4.8,0-5.7-1.1c-1.5-1.5-1.2-4.5-1.2-7.6v-7.3h0.4c5,0,6.9,0.9,8,6.1h1.6v-14
	h-1.6c-0.3,5-3.3,6.1-8,6.1h-0.4v-10.8c0-3,0-3,0.1-3.6c0.1-0.7,0.6-0.6,5.1-0.6c5.9,0,8.9,2.2,9.8,7.3c0.4,0,1.3,0,1.7,0v-9.3
	C184.8,121.7,158.8,121.7,158.2,121.7"/>
<path class="st0" d="M111.1,143.2v-1.5H93.5v1.6c4.1,0.5,5,1.5,5,5.6c0,5.4-2.6,7.9-8.4,7.9c-8.9,0-12.1-9.2-12.1-17.7
	c0-4.4,0.9-18.7,12.6-18.7c5.8,0,10,3.7,11.8,10.1h2.1v-12.1H102c-0.1,0.2-0.1,0.4-0.1,0.5c-0.3,0.6-0.8,1-1.4,1.2
	c-1,0.3-2.2,0.1-2.7-0.2c-2.5-1.3-5.6-1.9-9-1.9c-11.9,0-20.5,9-20.5,21.3c0,12.1,8,19.9,20.4,19.9c3.8,0,6.3-0.8,9.7-2.1
	c3.8-1.3,5-1.5,9-2.1v-6.1v-1C107.3,145.1,107.5,143.4,111.1,143.2"/>
<path class="st0" d="M500.9,69.3c-16.1,0-19.3,12.1-32.3,12.1h-79.8c-19.3,0-21.5,12.1-32.5,12.1l-99.3,0l-5.8,13h83.3
	c21.9,0,29.8-12.1,29.8-12.1h82.4c23,0,31.1-12.1,31.1-12.1h107.4l5.8-13H500.9z"/>
<path class="st0" d="M415.8,29.4h-3.5c-19.3,0-21.5,12.1-32.5,12.1c0,0-99.3,0-99.3,0l-5.8,13h83.3c21.9,0,29.8-12.1,29.8-12.1H410
	L415.8,29.4z"/>
<path class="st0" d="M516.9,43.3h-4.2c-16.1,0-19.3,12.1-32.3,12.1h-79.8c-19.3,0-21.5,12.1-32.5,12.1h-99.3l-5.8,13h83.3
	c21.9,0,29.8-12.1,29.8-12.1h82.4c23,0,31.1-12.1,31.1-12.1h21.3L516.9,43.3z"/>
</svg>
