<?xml version="1.0" encoding="utf-8"?>
<!-- Generator: Adobe Illustrator 24.1.3, SVG Export Plug-In . SVG Version: 6.00 Build 0)  -->
<svg version="1.1" id="Layer_1" xmlns="http://www.w3.org/2000/svg" xmlns:xlink="http://www.w3.org/1999/xlink" x="0px" y="0px"
	 viewBox="0 0 522.7 129.8" style="enable-background:new 0 0 522.7 129.8;display:none;" xml:space="preserve">
<style type="text/css">
	.st0{fill:#FFFFFF;}
</style>
<g id="Layer_2_1_" style="display:inline;">
	<g id="words">
		<g id="words-2">
			<path class="st0" d="M256.4,93.7v-1.4h-12.5v1.4c5.3,0.4,5.3,4.7,5.3,8.9v15.9c0,0-22.6-26.1-22.8-26.2h-11.2v1.4
				c2.9,0.3,3.8,1.5,5.6,3.9l0.1,0.1v22.7c0,3.9-0.4,6.5-5,7.1v1.4h12.5v-1.4c-5.4-0.4-5.4-5.1-5.4-9.2V100c0,0,25.9,29.4,26.1,29.7
				h2.2V103c0-1.9,0-5.4,0.9-7.1S254.9,94,256.4,93.7"/>
			<path class="st0" d="M305.5,113.8v-1.5h-17.6v1.6c4.1,0.5,5,1.5,5,5.6c0,5.4-2.6,7.9-8.4,7.9c-8.9,0-12.1-9.2-12.1-17.7
				c0-4.4,0.9-18.7,12.6-18.7c5.7,0,10,3.7,11.8,10.1h2.1V89h-2.5c-0.1,0.2-0.1,0.3-0.1,0.5c-0.3,0.6-0.8,1-1.5,1.2
				c-0.9,0.3-1.9,0.2-2.7-0.2c-2.8-1.3-6-2-9.1-1.9c-11.9,0-20.5,9-20.5,21.3c0,12.1,8,19.9,20.4,19.9c3.3,0,6.6-0.7,9.7-2.1
				c2.9-1.1,5.9-1.8,9-2.1v-7.1C301.6,115.7,301.8,114,305.5,113.8"/>
			<path class="st0" d="M19.2,65.1v1h0.3c0.6,0,1.1,0,1.2,0.4c0.2,0.7,0.2,1.5,0.2,2.2v4.9c0,0.7,0,1.5-0.2,2.2
				c-0.1,0.4-0.6,0.4-1.2,0.4h-0.3v1h5.7v-1h-0.3c-0.6,0-1.1,0-1.2-0.4c-0.2-0.7-0.2-1.5-0.2-2.2v-4.9c0-0.7,0-1.5,0.2-2.2
				c0.1-0.4,0.6-0.4,1.2-0.4h0.3v-1H19.2z"/>
			<path class="st0" d="M48.6,65.1V66H49c0.6,0.1,0.9,0.1,0.9,0.4s-0.2,0.9-1.6,3.2c0,0.1-0.6,0.9-0.9,1.4c-0.3-0.6-2-3.7-2-3.7
				s-0.2-0.5-0.4-0.9v-0.2c0-0.1,0.1-0.1,0.2-0.2c0.4-0.1,0.7-0.1,1.1-0.1V65H41v0.9c0.2,0,0.4,0,0.6,0.1c0.2,0,0.3,0.1,0.5,0.1
				c0.1,0,0.1,0,0.1,0.1c0.5,0.6,3.6,6.2,3.6,6.2v2c0,1.5,0,1.5-1.5,1.6H44v1h5.8v-0.9h-0.3c-1.4-0.1-1.4-0.1-1.4-1.6v-2.3l2.9-4.8
				c0.5-0.9,0.8-1.3,1.6-1.4h0.3v-1L48.6,65.1L48.6,65.1z"/>
			<path class="st0" d="M111.2,75.2c0,0-2.6-2.9-3.3-3.8c1.6-0.1,2.9-1.5,2.9-3.1c0-3.1-3.2-3.1-4.2-3.1h-5.4v1h0.3
				c0.6,0,1,0,1.1,0.4c0.1,0.7,0.1,1.5,0.1,2.2v4.9c0,0.7,0,1.5-0.1,2.2c-0.1,0.4-0.6,0.4-1.2,0.4h-0.3v1h5.6v-1h-0.3
				c-0.6,0-1,0-1.2-0.4c-0.1-0.7-0.1-1.5-0.1-2.2V72c0.3,0,0.4,0.1,0.7,0.4l0.2,0.3l2.9,3.5l0.9,1.1h3.3v-0.9h-0.2
				C112.2,76.2,111.6,75.8,111.2,75.2 M105,66.2h1c1.1,0,2.1,0.9,2.1,2c0,0.1,0,0.2,0,0.3c0,2-1,2.2-3.1,2.2V66.2"/>
			<path class="st0" d="M177.9,76.1c-0.6-0.1-1.2-0.4-1.5-0.9c0,0-2.6-2.9-3.3-3.8c1.6-0.1,2.9-1.5,2.9-3.1c0-3.1-3.2-3.1-4.2-3.1
				h-5.4v1h0.3c0.6,0,1,0,1.1,0.4c0.1,0.7,0.1,1.5,0.1,2.2v4.9c0,0.7,0,1.5-0.1,2.2c-0.1,0.4-0.6,0.4-1.2,0.4h-0.3v1h5.6v-1h-0.3
				c-0.6,0-1,0-1.2-0.4c-0.1-0.7-0.1-1.5-0.1-2.2V72c0.3,0,0.4,0.1,0.7,0.4l0.2,0.2l2.9,3.5l0.9,1.1h3.3v-0.9L177.9,76.1z
				 M170.2,66.2h1c1.1,0,2.1,0.9,2.1,2c0,0.1,0,0.2,0,0.3c0,2-0.9,2.2-3.2,2.2L170.2,66.2"/>
			<path class="st0" d="M123.9,73.8v0.3c-0.2,1.8-1.1,2-2.9,2.1c-0.7,0-1.6,0-2-0.5c-0.3-0.3-0.3-1.1-0.3-1.6v-2.5
				c1.5,0,2,0.2,2.2,1.6v0.2h0.9v-5.1h-1v0.3c-0.1,1.1-0.3,1.9-2.2,1.9v-4.2h1.4c1.8,0,2.5,0.1,2.8,1.9v0.2h0.9v-3.2h-9.1v1h0.3
				c0.6,0,1.1,0,1.2,0.4c0.2,0.7,0.2,1.5,0.2,2.2v4.8c0,0.7,0,1.5-0.2,2.2c-0.1,0.4-0.6,0.4-1.2,0.4h-0.3v1h10.1v-3.4H123.9z"/>
			<path class="st0" d="M163,73.7V74c-0.2,1.8-1.1,2-2.9,2.1c-0.7,0-1.6,0-2-0.5c-0.3-0.3-0.3-1.1-0.3-1.6v-2.5
				c1.5,0,2.1,0.2,2.2,1.6v0.2h0.9v-5.1h-1v0.3c-0.1,1.1-0.3,1.9-2.2,1.9v-4.2h1.4c1.7,0,2.5,0.1,2.8,1.9v0.2h0.9v-3.2h-9.1v1h0.3
				c0.6,0,1.1,0,1.2,0.4c0.2,0.7,0.2,1.5,0.2,2.2v4.8c0,0.7,0,1.5-0.2,2.2c-0.1,0.4-0.6,0.4-1.2,0.4h-0.3v1h10.1v-3.4H163z"/>
			<path class="st0" d="M137.8,75.7c-0.1-0.1-0.2-0.3-0.3-0.5l-4.1-10.3h-1l-2.7,6.9l-0.7,1.6l-0.7,1.7c-0.2,0.6-0.7,1.1-1.4,1.1
				h-0.3v0.9h4.3v-1h-0.5c-0.7,0-0.9-0.1-0.9-0.4c0.1-0.8,0.4-1.5,0.7-2.2l0.1-0.3c0-0.1,0-0.1,0.1-0.2h3.9c0.1,0.2,1,2.8,1,2.8
				c0,0.2-0.2,0.4-1,0.4h-0.4v1h5.5v-0.9h-0.3C138.6,76.1,138.1,76.1,137.8,75.7 M133.8,71.8h-3c0.2-0.5,1.2-3,1.5-3.8
				C132.6,68.8,133.6,71.4,133.8,71.8"/>
			<path class="st0" d="M93.9,72.7h0.3c1,0.1,1.2,0.2,1.2,1.2c0,1.9-1.4,2.3-2.6,2.3c-3.3,0-3.6-3.4-3.6-4.8c0-2.5,0.7-5.5,3.8-5.5
				c1.7-0.1,3,1.2,3.1,2.9c0,0.1,0,0.1,0,0.2v0.3h1.1v-4h-0.7l-0.1,0.2c-0.1,0.1-0.4,0.2-0.9,0c-0.9-0.4-1.8-0.6-2.8-0.6
				c-3.4-0.1-6.2,2.6-6.3,6c0,0.2,0,0.3,0,0.5c0,3.5,2.4,5.9,6.1,5.9c1,0,1.9-0.2,2.8-0.7l0,0l0.3-0.2c0.6-0.4,1.3-0.6,2-0.5h0.3
				v-2.1c0-0.4,0-0.7,0.2-0.9s0.9-0.2,0.9-0.2v-0.9h-5.1V72.7z"/>
			<path class="st0" d="M139.9,65.1v3.3h1v-0.3c0.1-1.8,0.6-1.9,2.3-1.9h0.2c0.3,0,0.7,0,1,0.1v8.3c0,1.2-0.2,1.5-1.6,1.5h-0.3v1
				h6.2v-1h-0.3c-1.5-0.1-1.6-0.4-1.6-1.5v-8.2l0,0c0.4-0.1,0.7-0.1,1.1-0.1c1.7,0,2.3,0.1,2.3,1.9v0.3h1v-3.3L139.9,65.1
				L139.9,65.1z"/>
			<path class="st0" d="M27.4,65.1v3.3h1v-0.3c0.1-1.8,0.6-1.9,2.3-1.9h0.2c0.3,0,0.7,0,1,0.1l0,0v8.3c0,1.2-0.2,1.5-1.6,1.5h-0.2
				L30,76.3V77h6.2v-1h-0.3c-1.5-0.1-1.6-0.4-1.6-1.5v-8.2l0,0c0.4-0.1,0.7-0.1,1.1-0.1c1.7,0,2.3,0.1,2.3,1.9v0.3h1v-3.3H27.4z"/>
			<path class="st0" d="M15.8,72.8c-0.5,1.9-1.2,3.6-3.5,3.6c-3.5,0-3.8-3.9-3.8-5.1S8.8,66,12.2,66c1.8-0.1,3.2,1.3,3.4,3v0.2h0.9
				v-4h-0.8l-0.2,0.5c-0.2,0.1-0.4,0-0.5-0.1c-0.9-0.5-1.9-0.7-2.9-0.7c-3.4-0.1-6.2,2.5-6.3,5.9c0,0.1,0,0.3,0,0.4
				c-0.1,3.2,2.4,6,5.6,6.1c0.2,0,0.4,0,0.6,0c1.2,0,2.3-0.3,3.3-0.9c0.3-0.1,0.4-0.1,0.5,0l0.2,0.5h0.7v-4.3h-0.8L15.8,72.8z"/>
			<path class="st0" d="M64.1,64.9c-3.5-0.1-6.5,2.6-6.6,6.2c0,0,0,0,0,0c0.2,3.6,3.4,6.3,6.9,6c3.3-0.2,5.9-2.9,6.1-6.2
				C70.4,67.5,67.6,64.8,64.1,64.9C64.1,64.9,64.1,64.9,64.1,64.9 M64,66c2.8,0,3.8,2.6,3.8,5.1c0,1.2-0.3,5.2-3.7,5.2
				c-3.6,0-3.9-3.9-3.9-5.1C60.2,68.8,61.2,66,64,66"/>
			<path class="st0" d="M71.8,65.1v0.8H72c0.6,0,1.1,0,1.3,0.5c0.2,0.7,0.2,1.5,0.2,2.2v4.9c0,0.8,0,1.5-0.2,2.3
				c-0.2,0.4-0.7,0.5-1.3,0.5h-0.2v0.8h5.8v-0.8h-0.5c-0.6,0-1,0-1.2-0.4c-0.2-0.7-0.2-1.5-0.2-2.2v-2c1.5,0,2.2,0.1,2.4,1.7v0.2
				h0.8v-5h-0.8v0.2c-0.1,1.1-0.3,2-2.4,1.9v-4.5h1.2c0.8-0.1,1.7,0,2.5,0.3c0.7,0.3,0.8,0.9,1,1.6l0.1,0.3h0.8v-3.2L71.8,65.1
				L71.8,65.1z"/>
			<path class="st0" d="M190.1,91.8c-12.1,0-20.6,7.8-20.6,18.8s8.6,18.8,20.4,18.8c10.3,0,20.7-6.5,20.7-18.8
				C210.7,99.6,202.2,91.8,190.1,91.8 M190,127.6c-10.3,0-11.4-12.1-11.4-17.3c0-6.2,1.5-16.6,11.4-16.6c7.5,0,11.7,6.1,11.7,17.3
				C201.7,121.9,197.6,127.6,190,127.6"/>
			<path class="st0" d="M131.8,92.3v1.3c1.9,0,3.2,0.3,4,1.1c1.3,1.2,1.3,3.2,1.3,6v19.6c0,2.8,0,4.8-1.3,6c-0.8,0.8-2.1,1.2-4,1.1
				v1.3h32.7v-10h-1.4c-1.6,6.1-4.4,8.2-11,8.2c-2.7,0-4.4-0.5-5.5-1.6c-1.6-1.6-1.6-4.3-1.6-7.7v-16.8c0-2.9,0-4.9,1.3-6.2
				c0.8-0.8,2.1-1.2,4.1-1.1v-1.4h-18C132.3,92.3,132,92.3,131.8,92.3"/>
			<path class="st0" d="M49.2,92.3v1.4c1.9,0,3.2,0.3,4,1.1c1.3,1.2,1.3,3.2,1.3,6v19.6c0,2.8,0,4.8-1.3,6c-0.8,0.8-2.1,1.2-4,1.1
				v1.3h32.1v-10.1h-1.6c-1.5,6.2-4,8.3-10.5,8.3c-2.6,0-4.8,0-5.7-1.1c-1.5-1.5-1.2-4.5-1.2-7.6V111h0.4c5,0,6.9,0.9,8,6.1h1.6v-14
				h-1.6c-0.3,5-3.3,6.1-8,6.1h-0.4V98.4c-0.1-1.2,0-2.4,0.1-3.6c0.1-0.7,0.6-0.6,5.1-0.6c5.9,0,8.9,2.2,9.8,7.3H79v-9.3
				C75.8,92.3,49.8,92.3,49.2,92.3"/>
			<path class="st0" d="M89.9,92.3v1.4c1.9,0,3.2,0.3,4,1.1c1.3,1.2,1.3,3.2,1.3,6v19.6c0,2.8,0,4.8-1.3,6c-0.8,0.8-2.1,1.2-4,1.1
				v1.3H122v-10.1h-1.6c-1.4,6.2-4,8.3-10.5,8.3c-2.6,0-4.8,0-5.7-1.1c-1.5-1.5-1.2-4.5-1.2-7.6V111h0.4c5,0,6.9,0.9,8,6.1h1.6v-14
				h-1.6c-0.3,5-3.3,6.1-8,6.1H103V98.4c-0.1-1.2,0-2.4,0.1-3.6c0.1-0.7,0.6-0.6,5.1-0.6c5.9,0,8.9,2.2,9.8,7.3h1.7v-9.3
				C116.5,92.3,90.5,92.3,89.9,92.3"/>
			<path class="st0" d="M42.8,113.8v-1.5H25.2v1.6c4.1,0.5,5,1.5,5,5.6c0,5.4-2.6,7.9-8.4,7.9c-8.9,0-12.1-9.2-12.1-17.7
				c0-4.4,0.9-18.7,12.6-18.7c5.8,0,10,3.7,11.8,10.1h2.1V89h-2.5c-0.1,0.2-0.1,0.3-0.1,0.5c-0.3,0.6-0.8,1-1.4,1.2
				c-0.9,0.3-1.9,0.2-2.7-0.2c-2.8-1.3-5.9-2-9-1.9C8.6,88.6,0,97.6,0,109.9c0,12.1,8,19.9,20.4,19.9c3.3,0,6.6-0.7,9.7-2.1
				c2.9-1.1,5.9-1.8,9-2.1v-7.1C39,115.7,39.2,114,42.8,113.8"/>
		</g>
	</g>
	<g id="flag">
		<g id="flag-2">
			<path class="st0" d="M432.6,39.9c-16.1,0-19.3,12.1-32.3,12.1h-79.8C301.2,52,299,64.1,288,64.1h-99.3l-5.8,13h83.3
				C288.1,77.1,296,65,296,65h82.4c23,0,31.1-12.1,31.1-12.1h107.4l5.8-13H432.6z"/>
			<path class="st0" d="M352.8,0h-3.6c-20,0-22.3,12.6-33.7,12.6h-103l-6,13.4h86.4c22.7,0,30.9-12.6,30.9-12.6h23L352.8,0z"/>
			<path class="st0" d="M448.6,13.9h-4.2c-16.1,0-19.3,12.1-32.3,12.1h-79.8c-19.3,0-21.5,12.1-32.5,12.1h-99.3l-5.8,13H278
				c21.9,0,29.8-12.1,29.8-12.1h82.4c23,0,31.1-12.1,31.1-12.1h21.3L448.6,13.9z"/>
		</g>
	</g>
</g>
</svg>
